<?xml version="1.0" encoding="UTF-8"?>
<!DOCTYPE svg PUBLIC "-//W3C//DTD SVG 1.1//EN" "http://www.w3.org/Graphics/SVG/1.1/DTD/svg11.dtd">
<svg xmlns="http://www.w3.org/2000/svg" version="1.1" width="400px" height="400px" style="shape-rendering:geometricPrecision; text-rendering:geometricPrecision; image-rendering:optimizeQuality; fill-rule:evenodd; clip-rule:evenodd" xmlns:xlink="http://www.w3.org/1999/xlink">
<g><path fill="#000814" stroke="#000814" stroke-width="0.5" d="M 3,299 c 0,-66.83 0,-133.67 0,-200.5 c 1.15,-50.45 40.35,-91.17 90.5,-95.36 c 71.33,-0.21 142.67,-0.19 214,0.08 c 48.98,5.21 84.62,41.27 89.37,90.28 c 0.2,71.33 0.18,142.67 -0.08,214 c -5.26,49.05 -41.2,84.59 -90.29,89.37 c -69.66,0.13 -139.33,0.17 -209,0.12 c -51.64,-0.89 -95.47,-46.3 -94.5,-97.99 Z M 38,298 c -0.14,33.74 24.16,60.71 57.77,63.8 c 69.12,0.25 138.24,0.26 207.37,0.06 c 31.97,-2.32 56.38,-26.63 58.72,-58.62 c 0.19,-68.83 0.19,-137.65 0,-206.48 c -2.39,-31.96 -26.75,-56.32 -58.73,-58.61 c -68.79,-0.2 -137.58,-0.2 -206.37,0 c -31.29,2.35 -55.3,25.69 -58.49,56.9 c -0.27,67.65 -0.36,135.3 -0.27,202.95 Z M 149.71,150 c 6.83,-65.41 103.97,-59.39 100.34,8.46 c -0.96,15.63 -9.75,28.88 -22.28,37.81 c -0.34,0.3 -0.51,0.67 -0.51,1.12 c 6.29,33.86 12.74,67.7 19.35,101.51 c 0.38,1.01 0.23,1.9 -0.47,2.68 c -29.53,0.33 -59.08,0.44 -88.63,0.33 c -4.71,0.61 -3.05,-2.85 -2.61,-5.78 c 6.39,-32.63 12.63,-65.27 18.71,-97.95 c -0.17,-1.83 -4.23,-3.65 -5.4,-5.06 c -13.42,-11.32 -19.15,-25.63 -18.5,-43.12 Z"/></g>
<g><path fill="#0050e2" stroke="#0050e2" stroke-width="0.5" d="M 38,298 c -0.09,-67.65 0,-135.3 0.27,-202.95 c 3.19,-31.21 27.2,-54.55 58.49,-56.9 c 68.79,-0.2 137.58,-0.2 206.37,0 c 31.98,2.29 56.34,26.65 58.73,58.61 c 0.19,68.83 0.19,137.65 0,206.48 c -2.34,31.99 -26.75,56.3 -58.72,58.62 c -69.13,0.2 -138.25,0.19 -207.37,-0.06 c -33.61,-3.09 -57.91,-30.06 -57.77,-63.8 Z M 149.71,150 c -0.65,17.49 5.08,31.8 18.5,43.12 c 1.17,1.41 5.23,3.23 5.4,5.06 c -6.08,32.68 -12.32,65.32 -18.71,97.95 c -0.44,2.93 -2.1,6.39 2.61,5.78 c 29.55,0.11 59.1,0 88.63,-0.33 c 0.7,-0.78 0.85,-1.67 0.47,-2.68 c -6.61,-33.81 -13.06,-67.65 -19.35,-101.51 c 0,-0.45 0.17,-0.82 0.51,-1.12 c 12.53,-8.93 21.32,-22.18 22.28,-37.81 c 3.63,-67.85 -93.51,-73.87 -100.34,-8.46 Z"/></g>
</svg>
